<svg xmlns="http://www.w3.org/2000/svg" width="10" height="10">
	<symbol id="twitter" viewbox="0 0 21 18">
		<path d="M13.851,0.876 C15.469,0.848 16.330,1.427 17.153,2.163 C17.851,2.104 18.759,1.721 19.293,1.455 C19.467,1.362 19.640,1.269 19.813,1.175 C19.508,1.986 19.094,2.620 18.458,3.101 C18.316,3.208 18.176,3.353 17.999,3.421 C17.999,3.424 17.999,3.427 17.999,3.431 C18.906,3.422 19.653,3.020 20.364,2.802 C20.364,2.805 20.364,2.809 20.364,2.812 C19.991,3.394 19.486,3.985 18.947,4.409 C18.730,4.578 18.512,4.748 18.295,4.918 C18.306,5.861 18.280,6.760 18.101,7.552 C17.058,12.158 14.293,15.285 9.917,16.624 C8.345,17.105 5.806,17.303 4.005,16.864 C3.113,16.646 2.306,16.400 1.549,16.075 C1.129,15.895 0.739,15.699 0.367,15.477 C0.245,15.403 0.122,15.330 -0.000,15.257 C0.406,15.269 0.881,15.379 1.335,15.307 C1.746,15.242 2.149,15.259 2.528,15.177 C3.473,14.973 4.312,14.704 5.035,14.289 C5.385,14.088 5.917,13.851 6.166,13.561 C5.697,13.569 5.271,13.462 4.923,13.341 C3.571,12.872 2.785,12.011 2.273,10.716 C2.682,10.760 3.862,10.865 4.138,10.636 C3.622,10.608 3.127,10.315 2.772,10.097 C1.685,9.429 0.798,8.309 0.805,6.584 C0.948,6.651 1.091,6.717 1.233,6.784 C1.506,6.897 1.784,6.957 2.110,7.023 C2.247,7.051 2.522,7.131 2.680,7.073 C2.674,7.073 2.667,7.073 2.660,7.073 C2.450,6.833 2.107,6.673 1.896,6.415 C1.198,5.563 0.545,4.253 0.958,2.692 C1.063,2.296 1.229,1.947 1.407,1.624 C1.413,1.628 1.420,1.631 1.427,1.634 C1.508,1.801 1.689,1.924 1.804,2.064 C2.160,2.497 2.600,2.887 3.047,3.231 C4.573,4.403 5.947,5.123 8.154,5.656 C8.713,5.792 9.360,5.895 10.029,5.896 C9.841,5.359 9.901,4.489 10.049,3.970 C10.421,2.662 11.229,1.720 12.414,1.215 C12.697,1.094 13.012,1.006 13.341,0.936 C13.511,0.916 13.681,0.896 13.851,0.876 Z"/>
	</symbol>
	<symbol id="insta" viewbox="0 0 21 20">
		<path d="M18.454,20.000 L3.182,20.000 C1.776,20.000 0.636,18.880 0.636,17.500 L0.636,2.500 C0.636,1.119 1.776,-0.000 3.182,-0.000 L18.454,-0.000 C19.860,-0.000 21.000,1.119 21.000,2.500 L21.000,17.500 C21.000,18.880 19.860,20.000 18.454,20.000 ZM10.818,6.125 C9.231,6.125 7.866,7.048 7.240,8.375 L7.236,8.375 C7.230,8.389 7.225,8.403 7.219,8.418 C7.182,8.500 7.148,8.584 7.117,8.669 C7.102,8.709 7.085,8.749 7.071,8.790 C7.042,8.877 7.019,8.966 6.996,9.055 C6.985,9.097 6.972,9.139 6.963,9.181 C6.942,9.275 6.928,9.371 6.914,9.468 C6.909,9.507 6.900,9.546 6.896,9.585 C6.881,9.721 6.873,9.860 6.873,10.000 C6.873,12.140 8.639,13.875 10.818,13.875 C12.997,13.875 14.764,12.140 14.764,10.000 C14.764,9.860 14.755,9.721 14.740,9.585 C14.736,9.546 14.728,9.507 14.722,9.468 C14.709,9.371 14.694,9.275 14.673,9.181 C14.664,9.139 14.651,9.097 14.641,9.055 C14.618,8.966 14.594,8.877 14.565,8.790 C14.551,8.749 14.535,8.709 14.520,8.669 C14.488,8.584 14.455,8.500 14.417,8.418 C14.411,8.403 14.406,8.389 14.400,8.375 L14.396,8.375 C13.770,7.048 12.405,6.125 10.818,6.125 ZM18.709,3.250 C18.709,2.698 18.253,2.250 17.691,2.250 L15.654,2.250 C15.092,2.250 14.636,2.698 14.636,3.250 L14.636,5.250 C14.636,5.802 15.092,6.250 15.654,6.250 L17.691,6.250 C18.253,6.250 18.709,5.802 18.709,5.250 L18.709,3.250 ZM18.709,8.375 L16.832,8.375 C16.977,8.892 17.055,9.437 17.055,10.000 C17.055,13.383 14.262,16.125 10.818,16.125 C7.374,16.125 4.582,13.383 4.582,10.000 C4.582,9.437 4.659,8.892 4.804,8.375 L2.927,8.375 L2.927,16.750 C2.927,17.302 3.383,17.750 3.945,17.750 L17.691,17.750 C18.253,17.750 18.709,17.302 18.709,16.750 L18.709,8.375 Z"/>
	</symbol>	
	<symbol id="phone" viewbox="0 0 14 21">
		<path fill-rule="evenodd"
		 d="M5.599,0.965 L6.592,3.038 C6.938,3.761 6.700,4.690 6.060,5.114 L4.901,5.881 C4.676,6.031 4.586,6.348 4.701,6.588 L6.713,10.788 L8.795,15.132 C8.853,15.252 8.958,15.348 9.083,15.403 C9.288,15.496 10.146,15.390 10.966,15.328 L11.200,15.310 C12.019,15.248 12.932,15.796 13.239,16.534 L13.877,18.068 C14.185,18.807 13.898,19.796 13.175,20.174 C7.889,22.937 5.873,17.886 5.873,17.886 L3.224,12.358 L0.645,6.974 C0.645,6.974 -2.035,2.221 3.555,0.093 C4.319,-0.198 5.253,0.243 5.599,0.965 Z"/>		
	</symbol>
	<symbol id="pin" viewbox="0 0 16 21">
		<path fill-rule="evenodd"
		d="M8.000,21.000 C8.000,21.000 0.000,12.224 0.000,7.875 C0.000,3.526 3.582,-0.000 8.000,-0.000 C12.418,-0.000 16.000,3.526 16.000,7.875 C16.000,12.224 8.000,21.000 8.000,21.000 ZM8.000,2.625 C5.055,2.625 2.667,4.976 2.667,7.875 C2.667,10.774 5.055,13.125 8.000,13.125 C10.945,13.125 13.333,10.774 13.333,7.875 C13.333,4.976 10.945,2.625 8.000,2.625 ZM8.000,10.500 C6.527,10.500 5.333,9.325 5.333,7.875 C5.333,6.425 6.527,5.250 8.000,5.250 C9.473,5.250 10.667,6.425 10.667,7.875 C10.667,9.325 9.473,10.500 8.000,10.500 Z"/>		
	</symbol>	
	<symbol id="mail" width="19" height="13" viewbox="0 0 19 13">
		<path fill-rule="evenodd"
		 d="M12.950,5.832 L18.735,0.256 C18.898,0.416 19.000,0.639 19.000,0.886 L19.000,12.113 C19.000,12.347 18.908,12.557 18.760,12.715 L12.950,5.832 ZM0.296,0.230 C0.454,0.088 0.661,-0.000 0.891,-0.000 L18.109,-0.000 C18.339,-0.000 18.546,0.088 18.704,0.230 L9.500,7.386 L0.296,0.230 ZM0.240,12.715 C0.092,12.557 0.000,12.347 0.000,12.113 L0.000,0.886 C0.000,0.639 0.102,0.416 0.265,0.256 L6.050,5.832 L0.240,12.715 ZM9.500,9.159 L11.915,6.831 L18.720,12.756 C18.560,12.906 18.346,13.000 18.109,13.000 L0.891,13.000 C0.654,13.000 0.440,12.906 0.280,12.756 L7.085,6.831 L9.500,9.159 Z"/>
	</symbol>		
</svg>